<?xml version="1.0" encoding="utf-8"?>
<!-- Generator: Adobe Illustrator 27.5.0, SVG Export Plug-In . SVG Version: 6.00 Build 0)  -->
<svg version="1.1" id="katman_1" xmlns="http://www.w3.org/2000/svg" xmlns:xlink="http://www.w3.org/1999/xlink" x="0px" y="0px"
	 viewBox="0 0 130.67 104.11" style="enable-background:new 0 0 130.67 104.11;" xml:space="preserve">
<style type="text/css">
	.st0{fill:#231F1F;}
	.st1{fill:#5D3EBC;}
	.st2{fill:#FFFFFF;}
	.st3{filter:url(#Adobe_OpacityMaskFilter);}
	.st4{fill-rule:evenodd;clip-rule:evenodd;fill:#FFFFFF;}
	.st5{mask:url(#mask-2_00000165918919317507121320000005926943671838284707_);}
	.st6{filter:url(#Adobe_OpacityMaskFilter_00000072255269022533877610000000166488160229491618_);}
	.st7{mask:url(#mask-4_00000103266070784256892050000008068502585965781648_);fill:#FFD10D;}
	.st8{filter:url(#Adobe_OpacityMaskFilter_00000094581335039546026930000005542733281262710957_);}
	.st9{mask:url(#mask-6_00000017487881251154754710000012273903602994963386_);fill:#FFD10D;}
	.st10{filter:url(#Adobe_OpacityMaskFilter_00000154392785861944621790000017752890655174285990_);}
	.st11{mask:url(#mask-8_00000020388585935936955710000009950371470604686741_);fill:#FFD10D;}
	.st12{filter:url(#Adobe_OpacityMaskFilter_00000070815252843293539720000007034065652945490612_);}
	.st13{mask:url(#mask-10_00000133495825899020965280000004096885380160503716_);fill:#FFD10D;}
	.st14{filter:url(#Adobe_OpacityMaskFilter_00000148663347964034842880000000435012722102449065_);}
	.st15{mask:url(#mask-12_00000084497071802336364500000009640711721156076702_);fill:#FFD10D;}
	.st16{filter:url(#Adobe_OpacityMaskFilter_00000064324216411425557160000003164833047030812338_);}
	.st17{mask:url(#mask-14_00000108297309815572500320000002567411906446020537_);fill:#FFD10D;}
	.st18{filter:url(#Adobe_OpacityMaskFilter_00000092419512622169159040000013003685302133634193_);}
	.st19{mask:url(#mask-16_00000040536027894657427840000012795189168895055523_);fill:#FFD10D;}
	.st20{filter:url(#Adobe_OpacityMaskFilter_00000082370786196697870830000003698110233242141619_);}
	.st21{mask:url(#mask-18_00000095329628417709126120000009752909439822189475_);fill:#231F1F;}
</style>
<g id="Page-1">
	<g id="n11" transform="translate(0.600100, 0.400025)">
		<g id="Group" transform="translate(57.209465, 0.000000)">
			<path id="Path" class="st0" d="M53.84,46.03c0.73-5.07-1.88-10.22-6.75-12.5c-4.87-2.27-10.49-0.96-13.9,2.86
				c-6.72,0.97-12.83,5.22-15.91,11.84c-4.86,10.44-0.36,22.85,10.07,27.72c10.42,4.87,22.81,0.35,27.67-10.1
				C58.09,59.21,57.41,51.8,53.84,46.03z"/>
			<path id="Path_00000015356826023900274250000016081945203227550873_" class="st0" d="M42.11,29.13c0.89,0.41,1.96-0.01,2.41-0.95
				c0.44-0.94,0.08-2.04-0.82-2.46c-0.89-0.41-1.96,0.01-2.41,0.95C40.86,27.61,41.22,28.71,42.11,29.13z"/>
			<path id="Path_00000155140589668924725390000004362117825694607241_" class="st0" d="M53.55,34.47c0.89,0.41,1.96-0.01,2.41-0.95
				c0.44-0.94,0.08-2.04-0.82-2.46c-0.89-0.41-1.96,0.01-2.41,0.95C52.3,32.96,52.67,34.06,53.55,34.47L53.55,34.47z"/>
		</g>
		<path id="Path_00000107574242515729451140000009706084282391045275_" class="st1" d="M33.88,69.8c-3.29,0-4.3-1.1-4.3-4.39v-7.56
			c0-2.9-0.98-4.2-3.48-4.2c-2.16,0-3.33,1.45-3.33,4.08v12.08h-2.5c-3.17,0-4.93-1.25-4.93-4.39v-7.56
			c0-6.2,4.11-10.23,10.96-10.23c7.63,0,10.72,4.04,10.72,10.42v11.76L33.88,69.8L33.88,69.8z"/>
		<path id="Path_00000041271287139023297770000003791774501467519889_" class="st1" d="M48.43,69.8c-2.23,0-3.96-1.53-3.96-4.12
			V50.16l-2.46,0.78c-0.55,0.15-1.1,0.23-1.61,0.23c-1.57,0-2.78-0.74-3.01-2.04l-0.47-2.59L44,43.56c1.17-0.51,2.67-0.83,4.34-0.83
			c1.76,0,3.56,1.25,3.56,3.37v23.67h-3.47V69.8z"/>
		<path id="Path_00000151535896258487201580000008126521832680348595_" class="st1" d="M65.46,69.8c-2.23,0-3.96-1.53-3.96-4.12
			V50.16l-2.46,0.78c-0.55,0.15-1.1,0.23-1.61,0.23c-1.57,0-2.78-0.74-3.01-2.04l-0.47-2.59l7.08-2.98
			c1.17-0.51,2.67-0.83,4.34-0.83c1.76,0,3.56,1.25,3.56,3.37v23.67h-3.47V69.8z"/>
		<path id="Path_00000008146164366254233660000009322649238625052326_" class="st2" d="M111.05,46.02
			c0.73-5.07-1.88-10.22-6.75-12.5c-4.87-2.27-10.49-0.96-13.9,2.86c-6.72,0.97-12.83,5.21-15.91,11.84
			c-4.86,10.44-0.36,22.85,10.07,27.72s22.81,0.35,27.67-10.1C115.3,59.21,114.62,51.8,111.05,46.02z"/>
		<path id="Path_00000134250469940334259480000013384970312655939000_" class="st0" d="M110.05,49.36
			c-2.78,5.97-9.85,8.55-15.8,5.76c-5.96-2.78-8.53-9.87-5.76-15.83c2.78-5.97,9.85-8.55,15.81-5.76
			C110.25,36.31,112.83,43.39,110.05,49.36L110.05,49.36z"/>
		<path id="Path_00000046299310960915972910000016031530224949470602_" class="st1" d="M112.22,65.84
			c-4.86,10.44-17.25,14.96-27.67,10.1c-10.42-4.87-14.93-17.27-10.07-27.72c4.86-10.44,17.25-14.96,27.67-10.1
			C112.58,42.99,117.08,55.4,112.22,65.84z"/>
		<g id="Clipped_00000161624636918993039060000006662621600991191939_" transform="translate(57.209465, 10.619460)">
			<g id="Path_00000183211199603998562570000006913051123731708828_">
			</g>
			<defs>
				<filter id="Adobe_OpacityMaskFilter" filterUnits="userSpaceOnUse" x="19.75" y="26.39" width="34.96" height="37.62">
					<feColorMatrix  type="matrix" values="1 0 0 0 0  0 1 0 0 0  0 0 1 0 0  0 0 0 1 0"/>
				</filter>
			</defs>
			
				<mask maskUnits="userSpaceOnUse" x="19.75" y="26.39" width="34.96" height="37.62" id="mask-2_00000165918919317507121320000005926943671838284707_">
				<g class="st3">
					<path id="path-1_00000173152156023362058130000008631056512332541338_" class="st4" d="M17.29,37.59
						c-4.86,10.44-0.36,22.85,10.07,27.72c10.42,4.87,22.81,0.35,27.67-10.1c4.86-10.44,0.36-22.85-10.07-27.71
						c-2.85-1.33-5.83-1.95-8.78-1.95C28.33,25.55,20.82,30.01,17.29,37.59L17.29,37.59z"/>
				</g>
			</mask>
			<g id="Group_00000120542084929990451220000016759358295497183135_" class="st5">
				<g id="Clipped" transform="translate(-59.047358, -12.452896)">
					<g>
						<g id="Path_00000149359163594021936060000016732081270706673850_">
						</g>
						<defs>
							
								<filter id="Adobe_OpacityMaskFilter_00000016037741908092149190000016219101380916130969_" filterUnits="userSpaceOnUse" x="96.8" y="38.84" width="10.53" height="10.55">
								<feColorMatrix  type="matrix" values="1 0 0 0 0  0 1 0 0 0  0 0 1 0 0  0 0 0 1 0"/>
							</filter>
						</defs>
						
							<mask maskUnits="userSpaceOnUse" x="96.8" y="38.84" width="10.53" height="10.55" id="mask-4_00000103266070784256892050000008068502585965781648_">
							<g style="filter:url(#Adobe_OpacityMaskFilter_00000016037741908092149190000016219101380916130969_);">
								<polygon id="path-3_00000057827833563559580440000008805877860713330865_" class="st4" points="117.84,25.56 15.33,25.56 
									15.33,81.56 117.84,81.56 								"/>
							</g>
						</mask>
						<path id="Path_00000067218465751358956990000009850258535707629190_" class="st7" d="M106.84,46.34
							c-1.23,2.64-4.36,3.78-7,2.55s-3.77-4.37-2.55-7.01c1.23-2.64,4.36-3.78,7-2.55C106.92,40.57,108.06,43.71,106.84,46.34
							L106.84,46.34z"/>
					</g>
					<g>
						<g id="Path_00000085239433222063442750000011029291419363223464_">
						</g>
						<defs>
							
								<filter id="Adobe_OpacityMaskFilter_00000034796471628561041810000011948768620042144657_" filterUnits="userSpaceOnUse" x="83.54" y="52.96" width="7.94" height="7.95">
								<feColorMatrix  type="matrix" values="1 0 0 0 0  0 1 0 0 0  0 0 1 0 0  0 0 0 1 0"/>
							</filter>
						</defs>
						
							<mask maskUnits="userSpaceOnUse" x="83.54" y="52.96" width="7.94" height="7.95" id="mask-6_00000017487881251154754710000012273903602994963386_">
							<g style="filter:url(#Adobe_OpacityMaskFilter_00000034796471628561041810000011948768620042144657_);">
								<polygon id="path-5_00000016033146852085335190000009616362333783974563_" class="st4" points="117.84,25.56 15.33,25.56 
									15.33,81.56 117.84,81.56 								"/>
							</g>
						</mask>
						<path id="Path_00000000209283613563902950000000464781131856096162_" class="st9" d="M91.11,58.61
							c-0.92,1.99-3.29,2.85-5.27,1.92c-1.99-0.92-2.85-3.29-1.92-5.28c0.92-1.99,3.29-2.85,5.27-1.92
							C91.17,54.26,92.03,56.63,91.11,58.61z"/>
					</g>
					<g>
						<g id="Path_00000107547652124974369340000008298551101975046805_">
						</g>
						<defs>
							
								<filter id="Adobe_OpacityMaskFilter_00000101806558509070046830000016370444923620842673_" filterUnits="userSpaceOnUse" x="83.71" y="42.94" width="4.94" height="4.94">
								<feColorMatrix  type="matrix" values="1 0 0 0 0  0 1 0 0 0  0 0 1 0 0  0 0 0 1 0"/>
							</filter>
						</defs>
						
							<mask maskUnits="userSpaceOnUse" x="83.71" y="42.94" width="4.94" height="4.94" id="mask-8_00000020388585935936955710000009950371470604686741_">
							<g style="filter:url(#Adobe_OpacityMaskFilter_00000101806558509070046830000016370444923620842673_);">
								<polygon id="path-7_00000126306599141567260460000015644619740710961334_" class="st4" points="117.84,25.56 15.33,25.56 
									15.33,81.56 117.84,81.56 								"/>
							</g>
						</mask>
						<path id="Path_00000078022919427853097580000004065566042064548743_" class="st11" d="M88.42,46.46
							c-0.58,1.24-2.04,1.77-3.28,1.19c-1.23-0.58-1.77-2.05-1.19-3.28c0.58-1.24,2.04-1.77,3.28-1.19
							C88.46,43.74,88.99,45.22,88.42,46.46z"/>
					</g>
					<g>
						<g id="Path_00000170267557567487985430000015999493527648146569_">
						</g>
						<defs>
							
								<filter id="Adobe_OpacityMaskFilter_00000026844011967007946610000005290960904049924230_" filterUnits="userSpaceOnUse" x="78.8" y="63.32" width="4.94" height="4.94">
								<feColorMatrix  type="matrix" values="1 0 0 0 0  0 1 0 0 0  0 0 1 0 0  0 0 0 1 0"/>
							</filter>
						</defs>
						
							<mask maskUnits="userSpaceOnUse" x="78.8" y="63.32" width="4.94" height="4.94" id="mask-10_00000133495825899020965280000004096885380160503716_">
							<g style="filter:url(#Adobe_OpacityMaskFilter_00000026844011967007946610000005290960904049924230_);">
								<polygon id="path-9_00000012443097040276298170000008992913684869097913_" class="st4" points="117.84,25.56 15.33,25.56 
									15.33,81.56 117.84,81.56 								"/>
							</g>
						</mask>
						<path id="Path_00000015324870141767419880000010434157959948475269_" class="st13" d="M83.51,66.83
							c-0.58,1.24-2.04,1.77-3.28,1.19c-1.23-0.58-1.77-2.05-1.19-3.28c0.58-1.24,2.04-1.77,3.28-1.19
							C83.56,64.13,84.08,65.6,83.51,66.83L83.51,66.83z"/>
					</g>
					<g>
						<g id="Path_00000005246429085664529910000009196879983432990654_">
						</g>
						<defs>
							
								<filter id="Adobe_OpacityMaskFilter_00000105392899389103824340000018327720208410318778_" filterUnits="userSpaceOnUse" x="97.65" y="59.55" width="7.94" height="7.95">
								<feColorMatrix  type="matrix" values="1 0 0 0 0  0 1 0 0 0  0 0 1 0 0  0 0 0 1 0"/>
							</filter>
						</defs>
						
							<mask maskUnits="userSpaceOnUse" x="97.65" y="59.55" width="7.94" height="7.95" id="mask-12_00000084497071802336364500000009640711721156076702_">
							<g style="filter:url(#Adobe_OpacityMaskFilter_00000105392899389103824340000018327720208410318778_);">
								<polygon id="path-11_00000039103858297579354420000004442561001416120969_" class="st4" points="117.84,25.56 15.33,25.56 
									15.33,81.56 117.84,81.56 								"/>
							</g>
						</mask>
						<path id="Path_00000014604706186073215470000011699603026861577883_" class="st15" d="M98.02,61.85
							c-0.92,1.99-0.07,4.36,1.92,5.28c1.99,0.92,4.35,0.07,5.27-1.92c0.92-1.99,0.07-4.36-1.92-5.28
							C101.31,59,98.94,59.85,98.02,61.85z"/>
					</g>
					<g>
						<g id="Path_00000178926058758029054590000004987165486614158014_">
						</g>
						<defs>
							
								<filter id="Adobe_OpacityMaskFilter_00000088127881905357120780000014037184069645508530_" filterUnits="userSpaceOnUse" x="108.82" y="54.67" width="4.94" height="4.94">
								<feColorMatrix  type="matrix" values="1 0 0 0 0  0 1 0 0 0  0 0 1 0 0  0 0 0 1 0"/>
							</filter>
						</defs>
						
							<mask maskUnits="userSpaceOnUse" x="108.82" y="54.67" width="4.94" height="4.94" id="mask-14_00000108297309815572500320000002567411906446020537_">
							<g style="filter:url(#Adobe_OpacityMaskFilter_00000088127881905357120780000014037184069645508530_);">
								<polygon id="path-13_00000049189058623328231150000009656166341928114066_" class="st4" points="117.84,25.56 15.33,25.56 
									15.33,81.56 117.84,81.56 								"/>
							</g>
						</mask>
						<path id="Path_00000176009881981511036190000012790201550208152211_" class="st17" d="M109.05,56.09
							c-0.58,1.24-0.04,2.7,1.19,3.28c1.23,0.58,2.7,0.04,3.28-1.19c0.58-1.24,0.04-2.7-1.19-3.28
							C111.09,54.32,109.63,54.86,109.05,56.09L109.05,56.09z"/>
					</g>
					<g>
						<g id="Path_00000085230908201909322630000001708823370062565819_">
						</g>
						<defs>
							
								<filter id="Adobe_OpacityMaskFilter_00000137129929060224217950000017838753480595659929_" filterUnits="userSpaceOnUse" x="96.38" y="71.53" width="4.94" height="4.94">
								<feColorMatrix  type="matrix" values="1 0 0 0 0  0 1 0 0 0  0 0 1 0 0  0 0 0 1 0"/>
							</filter>
						</defs>
						
							<mask maskUnits="userSpaceOnUse" x="96.38" y="71.53" width="4.94" height="4.94" id="mask-16_00000040536027894657427840000012795189168895055523_">
							<g style="filter:url(#Adobe_OpacityMaskFilter_00000137129929060224217950000017838753480595659929_);">
								<polygon id="path-15_00000066486603936659244910000014266329041216303011_" class="st4" points="117.84,25.56 15.33,25.56 
									15.33,81.56 117.84,81.56 								"/>
							</g>
						</mask>
						<path id="Path_00000005244987231061684480000014864101761116555400_" class="st19" d="M96.61,72.95
							c-0.58,1.24-0.04,2.7,1.19,3.28c1.23,0.58,2.7,0.04,3.28-1.19c0.58-1.24,0.04-2.7-1.19-3.28
							C98.66,71.18,97.19,71.72,96.61,72.95L96.61,72.95z"/>
					</g>
				</g>
			</g>
		</g>
		<g id="Clipped_00000083085313562511772100000007147936437618297765_" transform="translate(57.209465, 10.609875)">
			<g id="Path_00000080174675794179935360000017274081611084566172_">
			</g>
			<defs>
				
					<filter id="Adobe_OpacityMaskFilter_00000147200714638821322710000009062127119848030360_" filterUnits="userSpaceOnUse" x="26.58" y="27.03" width="19.03" height="39.02">
					<feColorMatrix  type="matrix" values="1 0 0 0 0  0 1 0 0 0  0 0 1 0 0  0 0 0 1 0"/>
				</filter>
			</defs>
			
				<mask maskUnits="userSpaceOnUse" x="26.58" y="27.03" width="19.03" height="39.02" id="mask-18_00000095329628417709126120000009752909439822189475_">
				<g style="filter:url(#Adobe_OpacityMaskFilter_00000147200714638821322710000009062127119848030360_);">
					<path id="path-17_00000175294861939972693290000006860272242055881101_" class="st4" d="M17.29,37.6
						c-4.86,10.44-0.36,22.85,10.07,27.72c10.42,4.87,22.81,0.35,27.67-10.1c4.86-10.44,0.36-22.85-10.07-27.72
						c-2.85-1.33-5.83-1.95-8.78-1.95C28.33,25.56,20.82,30.02,17.29,37.6L17.29,37.6z"/>
				</g>
			</mask>
			<path id="Path_00000135683423756283446520000006884452068332207540_" class="st21" d="M45.06,27.27
				c-0.18-0.09-0.37-0.16-0.56-0.24L26.58,65.54c0.18,0.09,0.36,0.18,0.54,0.27c0.18,0.09,0.37,0.16,0.56,0.24L45.6,27.53
				C45.43,27.44,45.25,27.36,45.06,27.27z"/>
		</g>
	</g>
</g>
</svg>
